<svg width="14" height="12" viewBox="0 0 14 12" fill="none" xmlns="http://www.w3.org/2000/svg">
<path d="M11.6666 0.666748H2.33325C1.80282 0.666748 1.29411 0.877462 0.919038 1.25253C0.543966 1.62761 0.333252 2.13631 0.333252 2.66675V9.33341C0.333252 9.86385 0.543966 10.3726 0.919038 10.7476C1.29411 11.1227 1.80282 11.3334 2.33325 11.3334H11.6666C12.197 11.3334 12.7057 11.1227 13.0808 10.7476C13.4559 10.3726 13.6666 9.86385 13.6666 9.33341V2.66675C13.6666 2.13631 13.4559 1.62761 13.0808 1.25253C12.7057 0.877462 12.197 0.666748 11.6666 0.666748ZM11.3933 2.00008L7.47325 5.92008C7.41128 5.98257 7.33754 6.03216 7.2563 6.06601C7.17506 6.09985 7.08793 6.11728 6.99992 6.11728C6.91191 6.11728 6.82477 6.09985 6.74353 6.06601C6.66229 6.03216 6.58856 5.98257 6.52659 5.92008L2.60659 2.00008H11.3933ZM12.3333 9.33341C12.3333 9.51023 12.263 9.6798 12.138 9.80482C12.013 9.92984 11.8434 10.0001 11.6666 10.0001H2.33325C2.15644 10.0001 1.98687 9.92984 1.86185 9.80482C1.73682 9.6798 1.66659 9.51023 1.66659 9.33341V2.94008L5.58659 6.86008C5.96159 7.23462 6.46992 7.44499 6.99992 7.44499C7.52992 7.44499 8.03825 7.23462 8.41325 6.86008L12.3333 2.94008V9.33341Z" fill="#848687"/>
</svg>
