<svg width="24" height="24" viewBox="0 0 24 24" fill="none" xmlns="http://www.w3.org/2000/svg">
<path fill-rule="evenodd" clip-rule="evenodd" d="M12 24C18.6274 24 24 18.6274 24 12C24 5.37258 18.6274 0 12 0C5.37258 0 0 5.37258 0 12C0 18.6274 5.37258 24 12 24ZM16.9471 6.75H7.05396C6.07625 6.75 5.24767 7.446 5.04881 8.37401L12.0088 12.6163L18.9523 8.37401C18.7534 7.446 17.9249 6.75 16.9471 6.75ZM12.406 13.6935C12.2734 13.7763 12.1242 13.8095 11.9917 13.8095C11.8591 13.8095 11.71 13.7763 11.5774 13.6935L4.98193 9.66658V15.0192C4.98193 16.1626 5.90994 17.0906 7.05337 17.0906H16.9466C18.09 17.0906 19.018 16.1626 19.018 15.0192V9.66658L12.406 13.6935Z" fill="#A2A3A3"/>
</svg>
