<svg width="24" height="24" viewBox="0 0 24 24" fill="none" xmlns="http://www.w3.org/2000/svg">
<path fill-rule="evenodd" clip-rule="evenodd" d="M12 24C18.6274 24 24 18.6274 24 12C24 5.37258 18.6274 0 12 0C5.37258 0 0 5.37258 0 12C0 18.6274 5.37258 24 12 24ZM17.1553 8.41142C17.713 8.34358 18.248 8.20385 18.75 7.99304C18.3737 8.52935 17.9122 8.99538 17.3629 9.36854C17.3688 9.48081 17.373 9.59388 17.373 9.711C17.373 13.2115 14.5886 17.25 9.49575 17.25C7.92891 17.25 6.47597 16.8179 5.25 16.0611C5.46769 16.0877 5.68538 16.0974 5.91234 16.0974C7.20666 16.0974 8.40225 15.6726 9.34387 14.9675C8.13394 14.9424 7.11637 14.1711 6.75778 13.1219C6.92569 13.1574 7.10456 13.1671 7.28175 13.1671C7.53656 13.1671 7.78209 13.1388 8.00737 13.0799C6.74934 12.8335 5.79 11.7642 5.79 10.4767V10.4476C6.15956 10.6423 6.59578 10.7658 7.04044 10.7739C6.30469 10.303 5.81109 9.48969 5.81109 8.57215C5.81109 8.0835 5.95116 7.62958 6.18994 7.233C7.55766 8.84111 9.59363 9.89677 11.8945 10.0042C11.849 9.81196 11.8304 9.61004 11.8304 9.40004C11.8304 7.94054 13.064 6.75 14.5962 6.75C15.386 6.75 16.1099 7.07065 16.6178 7.58838C17.2473 7.46804 17.8379 7.25238 18.3728 6.94708C18.167 7.56819 17.7291 8.0835 17.1553 8.41142Z" fill="#A2A3A3"/>
</svg>
