<svg width="132" height="32" viewBox="0 0 132 32" fill="none" xmlns="http://www.w3.org/2000/svg">
<path d="M20.5032 2.64656L18.2052 8.33558C18.0795 8.65963 17.7024 8.82166 17.3613 8.69564C17.092 8.58762 16.9484 8.33558 16.9663 8.06553L17.2716 1.94443C17.3254 1.00826 18.1154 0.306139 19.031 0.342145C19.9646 0.396155 20.6648 1.1883 20.6289 2.10646C20.611 2.28649 20.5571 2.46653 20.5032 2.64656Z" fill="#F16037"/>
<path fill-rule="evenodd" clip-rule="evenodd" d="M26.1586 0H29.911C30.3239 0 30.7189 0.414074 30.7009 0.792142C30.7009 1.23836 30.4888 1.42281 30.3446 1.54824C30.3375 1.55439 30.3306 1.56039 30.3239 1.56628L21.347 10.2438V10.2618C21.0598 10.5679 20.575 10.5679 20.2878 10.2618C20.0544 10.0278 20.0184 9.68573 20.1621 9.39768C20.1621 9.39768 24.453 1.35024 24.7942 0.720129C25.1353 0.0900161 25.8714 0 26.1586 0ZM31.7063 15.8786C31.7063 24.6642 24.6146 31.7754 15.8532 31.7754C7.10969 31.7754 0 24.6642 0 15.8786C0 7.86717 5.90679 1.24198 13.591 0.143783C13.6247 0.135342 13.6583 0.130859 13.6902 0.126622C13.7262 0.121822 13.7599 0.117339 13.7885 0.107777C14.0398 0.12578 14.2553 0.287809 14.3271 0.539854L14.3451 0.773896L14.9555 7.92118L14.9734 8.11921C14.9555 8.37126 14.7759 8.56929 14.5425 8.6413C14.5066 8.6413 14.4707 8.6413 14.4348 8.65931C11.0595 9.32543 8.49213 12.314 8.49213 15.8966C8.49213 19.9653 11.7777 23.2779 15.8532 23.2779C19.9107 23.2779 23.1963 19.9833 23.2142 15.9326V15.9146V15.8786V15.8426C23.2322 15.5906 23.3938 15.3925 23.6272 15.3205L23.7349 15.3025L30.8625 13.8262L31.0241 13.7902H31.06C31.3293 13.7902 31.5627 13.9703 31.6345 14.2403C31.6345 14.2654 31.6384 14.2904 31.6425 14.3173C31.6473 14.3483 31.6525 14.3817 31.6525 14.4203C31.6884 14.8704 31.7063 15.3745 31.7063 15.8786ZM20.8802 15.8788C20.8802 18.6513 18.636 20.9197 15.8711 20.9197C13.1062 20.9197 10.8441 18.6693 10.8441 15.8788C10.8441 13.1063 13.0883 10.8379 15.8711 10.8379C18.636 10.8559 20.8802 13.1063 20.8802 15.8788Z" fill="url(#paint0_linear)"/>
<path d="M29.103 11.27L23.286 13.1604C22.9448 13.2684 22.5858 13.0883 22.478 12.7463C22.3883 12.4762 22.496 12.1882 22.6935 12.0262L27.559 8.31749C28.2951 7.75939 29.3543 7.90341 29.9109 8.64155C30.4675 9.37968 30.3238 10.4419 29.5877 11C29.4441 11.126 29.2646 11.216 29.103 11.27Z" fill="#F16037"/>
<path d="M48.9144 23.027H52.3798C51.9668 24.3827 51.1588 25.5034 49.9558 26.353C48.7528 27.2026 47.4421 27.6364 46.0057 27.6364C45.1439 27.6364 44.3 27.4737 43.4561 27.1303C42.6122 26.7868 41.876 26.2988 41.2117 25.6842C40.5653 25.0515 40.0446 24.3104 39.7034 23.4428C39.3443 22.5751 39.1648 21.6532 39.1648 20.6952C39.1648 18.8153 39.8291 17.2427 41.1578 15.9232C42.4865 14.6217 44.1025 13.9709 45.9878 13.9709C47.4242 13.9709 48.7349 14.4048 49.9558 15.2724C51.1768 16.1401 51.9668 17.2608 52.3618 18.6346H48.8965C48.5553 18.0742 48.1424 17.6585 47.6755 17.3873C47.2087 17.1162 46.6162 16.9896 45.9518 16.9896C44.8386 16.9896 43.9588 17.3512 43.2765 18.0561C42.5942 18.7611 42.271 19.6649 42.271 20.7494C42.271 21.8702 42.6301 22.8101 43.3483 23.5332C44.0665 24.2743 44.9823 24.6358 46.1134 24.6358C46.688 24.6358 47.2087 24.4912 47.7114 24.202C48.1962 23.8947 48.6092 23.5151 48.9144 23.027Z" fill="#6E7171"/>
<path d="M60.4057 13.9709C62.273 13.9709 63.8531 14.6389 65.1458 15.9747C66.4386 17.3106 67.1029 18.9353 67.1029 20.8308C67.1029 22.7082 66.4386 24.3148 65.092 25.6507C63.7453 26.9865 62.1473 27.6364 60.262 27.6364C58.4126 27.6364 56.8146 26.9685 55.486 25.6146C54.1393 24.2787 53.475 22.6721 53.475 20.8127C53.475 18.8992 54.1393 17.2745 55.486 15.9386C56.8326 14.6389 58.4665 13.9709 60.4057 13.9709ZM60.28 16.9857C59.7952 16.9857 59.3104 17.094 58.8615 17.2925C58.4126 17.4911 57.9997 17.7799 57.6585 18.141C56.9583 18.845 56.5992 19.7476 56.5992 20.8308C56.5992 21.8778 56.9583 22.7804 57.6585 23.5205C58.3588 24.2607 59.2386 24.6217 60.2979 24.6217C61.3752 24.6217 62.273 24.2607 62.9733 23.5386C63.6735 22.8165 64.0326 21.9139 64.0326 20.8308C64.0326 19.7657 63.6735 18.8631 62.9553 18.1049C62.2191 17.3467 61.3393 16.9857 60.28 16.9857Z" fill="#6E7171"/>
<path d="M56.0426 12.8822L59.0052 9.6897H61.4471L64.4456 12.8822H61.4471L60.2082 11.4032L58.7718 12.8822H56.0426Z" fill="#6E7171"/>
<path d="M77.9837 23.027H81.449C81.036 24.3827 80.2281 25.5034 79.0251 26.353C77.8221 27.2026 76.5113 27.6364 75.0749 27.6364C74.2131 27.6364 73.3692 27.4737 72.5253 27.1303C71.6814 26.7868 70.9452 26.2988 70.2809 25.6842C69.6345 25.0515 69.1138 24.3104 68.7727 23.4428C68.4136 22.5751 68.234 21.6532 68.234 20.6952C68.234 18.8153 68.8984 17.2427 70.227 15.9232C71.5557 14.6217 73.1717 13.9709 75.057 13.9709C76.4934 13.9709 77.8041 14.4048 79.0251 15.2724C80.246 16.1401 81.036 17.2608 81.431 18.6346H77.9657C77.6246 18.0742 77.2116 17.6585 76.7447 17.3873C76.26 17.1162 75.6854 16.9896 75.0211 16.9896C73.9078 16.9896 73.028 17.3512 72.3457 18.0561C71.6634 18.7611 71.3223 19.6649 71.3223 20.7494C71.3223 21.8702 71.6814 22.8101 72.3996 23.5332C73.1178 24.2743 74.0335 24.6358 75.1647 24.6358C75.7393 24.6358 76.2779 24.4912 76.7627 24.202C77.2834 23.8947 77.6784 23.5151 77.9837 23.027Z" fill="#6E7171"/>
<path d="M98.7401 23.027H102.205C101.793 24.3827 100.985 25.5034 99.7815 26.353C98.5785 27.2026 97.2678 27.6364 95.8314 27.6364C94.9695 27.6364 94.1257 27.4737 93.2818 27.1303C92.4379 26.7868 91.7017 26.2988 91.0374 25.6842C90.373 25.0515 89.8703 24.3104 89.5291 23.4428C89.17 22.5751 88.9905 21.6532 88.9905 20.6952C88.9905 18.8153 89.6548 17.2427 90.9835 15.9232C92.3122 14.6217 93.9281 13.9709 95.8134 13.9709C97.2498 13.9709 98.5606 14.4048 99.7815 15.2724C101.002 16.1401 101.792 17.2608 102.188 18.6346H98.7222C98.381 18.0742 97.986 17.6585 97.5012 17.3873C97.0164 17.1162 96.4419 16.9896 95.7775 16.9896C94.6643 16.9896 93.7845 17.3512 93.1022 18.0561C92.4199 18.7611 92.0788 19.6649 92.0788 20.7494C92.0788 21.8702 92.4379 22.8101 93.1561 23.5332C93.8743 24.2743 94.79 24.6358 95.9212 24.6358C96.4957 24.6358 97.0344 24.4912 97.5192 24.202C98.0219 23.8947 98.4349 23.5151 98.7401 23.027Z" fill="#6E7171"/>
<path d="M110.285 13.9709C112.153 13.9709 113.733 14.6389 115.025 15.9747C116.318 17.3106 116.982 18.9353 116.982 20.8308C116.982 22.7082 116.318 24.3148 114.971 25.6507C113.643 26.9865 112.027 27.6364 110.142 27.6364C108.292 27.6364 106.694 26.9685 105.365 25.6146C104.019 24.2787 103.354 22.6721 103.354 20.8127C103.354 18.8992 104.019 17.2745 105.365 15.9386C106.712 14.6389 108.346 13.9709 110.285 13.9709ZM110.142 16.9857C109.657 16.9857 109.172 17.094 108.723 17.2925C108.274 17.4911 107.861 17.7799 107.52 18.141C106.82 18.845 106.461 19.7476 106.461 20.8308C106.461 21.8778 106.82 22.7804 107.52 23.5205C108.22 24.2607 109.1 24.6217 110.16 24.6217C111.237 24.6217 112.135 24.2607 112.835 23.5386C113.553 22.8165 113.894 21.9139 113.894 20.8308C113.894 19.7657 113.535 18.8631 112.817 18.1049C112.099 17.3467 111.219 16.9857 110.142 16.9857Z" fill="#6E7171"/>
<path d="M105.922 12.8822L108.885 9.6897H111.327L114.325 12.8822H111.327L110.07 11.4032L108.651 12.8822H105.922Z" fill="#6E7171"/>
<path d="M127.809 23.027H131.275C130.862 24.3827 130.054 25.5034 128.851 26.353C127.648 27.2026 126.337 27.6364 124.901 27.6364C124.039 27.6364 123.195 27.4737 122.351 27.1303C121.507 26.7868 120.771 26.2988 120.107 25.6842C119.442 25.0515 118.958 24.3104 118.598 23.4428C118.239 22.5751 118.078 21.6532 118.078 20.6952C118.078 18.8153 118.742 17.2427 120.071 15.9232C121.399 14.6217 123.015 13.9709 124.901 13.9709C126.337 13.9709 127.648 14.4048 128.869 15.2724C130.09 16.1401 130.88 17.2608 131.275 18.6346H127.809C127.468 18.0742 127.055 17.6585 126.589 17.3873C126.104 17.1162 125.529 16.9896 124.865 16.9896C123.752 16.9896 122.872 17.3512 122.189 18.0561C121.507 18.7611 121.166 19.6649 121.166 20.7494C121.166 21.8702 121.525 22.8101 122.243 23.5332C122.962 24.2743 123.877 24.6358 125.008 24.6358C125.583 24.6358 126.122 24.4912 126.606 24.202C127.109 23.8947 127.504 23.5151 127.809 23.027Z" fill="#6E7171"/>
<path d="M63.458 6.33493L64.5353 3.50314C64.7508 2.944 64.9303 2.56523 65.0919 2.34878C65.2535 2.13234 65.451 1.98805 65.7204 1.9159C66.1872 1.78964 66.4924 1.97001 66.6002 2.42093C66.6899 2.79971 66.4565 3.35885 65.882 4.08032L63.7992 6.74978C63.6555 6.93015 63.5478 7.02033 63.4939 7.03837C63.3862 7.0564 63.3323 7.03837 63.2964 6.93015C63.2605 6.87604 63.3144 6.67763 63.458 6.33493Z" fill="#4FBA69"/>
<path d="M64.7867 7.65153L66.7259 5.32478C67.1029 4.87386 67.4082 4.56723 67.6236 4.4049C67.8391 4.24257 68.0905 4.17042 68.3598 4.20649C68.8446 4.24257 69.06 4.49508 69.0241 4.98208C68.9882 5.37889 68.5932 5.81177 67.8032 6.3168L64.9663 8.15656C64.7687 8.28282 64.6431 8.33693 64.5712 8.33693C64.4635 8.33693 64.4096 8.28282 64.4276 8.1746C64.4276 8.10245 64.5533 7.94012 64.7867 7.65153Z" fill="#4FBA69"/>
<path d="M65.9898 9.0225L68.6471 7.59759C69.1678 7.32704 69.5628 7.14667 69.8142 7.09256C70.0835 7.02041 70.3349 7.05648 70.5683 7.18274C70.9992 7.39918 71.107 7.72385 70.8915 8.15673C70.712 8.49943 70.1733 8.76999 69.2576 8.93232L65.9359 9.56361C65.7204 9.59968 65.5768 9.61772 65.505 9.58164C65.4152 9.52753 65.3793 9.47342 65.4331 9.38324C65.487 9.31109 65.6666 9.20287 65.9898 9.0225Z" fill="#4FBA69"/>
<path d="M113.284 6.37096L114.361 3.52114C114.576 2.962 114.756 2.58322 114.917 2.34874C115.079 2.1323 115.277 1.98801 115.546 1.91586C116.013 1.7896 116.318 1.96997 116.444 2.43893C116.533 2.8177 116.3 3.37685 115.725 4.11636L113.643 6.80385C113.499 6.98422 113.391 7.0744 113.337 7.09244C113.23 7.11048 113.176 7.09244 113.14 6.98422C113.086 6.91207 113.14 6.71366 113.284 6.37096Z" fill="#F16037"/>
<path d="M114.612 7.68768L116.569 5.34288C116.946 4.89196 117.252 4.58534 117.467 4.42301C117.683 4.26067 117.934 4.18853 118.203 4.20656C118.688 4.24264 118.922 4.51319 118.868 4.98215C118.832 5.37896 118.437 5.82988 117.629 6.33491L114.774 8.19271C114.576 8.31897 114.451 8.37308 114.379 8.37308C114.271 8.37308 114.217 8.31897 114.235 8.21075C114.253 8.15663 114.379 7.97627 114.612 7.68768Z" fill="#F16037"/>
<path d="M115.833 9.07658L118.509 7.65167C119.029 7.38111 119.424 7.20075 119.694 7.14663C119.963 7.07449 120.214 7.11056 120.448 7.23682C120.879 7.45326 120.986 7.77793 120.789 8.21081C120.609 8.55351 120.071 8.82406 119.137 8.98639L115.797 9.61769C115.564 9.65376 115.42 9.6718 115.366 9.63572C115.277 9.58161 115.241 9.50946 115.295 9.43732C115.331 9.36517 115.51 9.23891 115.833 9.07658Z" fill="#F16037"/>
<defs>
<linearGradient id="paint0_linear" x1="0" y1="19.4183" x2="31.7063" y2="19.4183" gradientUnits="userSpaceOnUse">
<stop stop-color="#97C93D"/>
<stop offset="1" stop-color="#4FBA69"/>
</linearGradient>
</defs>
</svg>
