<svg width="40" height="40" viewBox="0 0 40 40" fill="none" xmlns="http://www.w3.org/2000/svg">
<path d="M39.4261 19.9866C39.4261 31.0384 30.6004 39.9981 19.7155 39.9981C8.82734 39.9997 0 31.04 0 19.9866C0 9.90997 7.34097 1.56964 16.8953 0.179307C16.9813 0.164481 17.0656 0.154598 17.1516 0.143066C17.4697 0.157892 17.7342 0.378632 17.8186 0.675148L17.8429 0.974958L18.5991 9.96433L18.6185 10.2081C18.5926 10.5195 18.3719 10.7798 18.0814 10.8588C18.036 10.8605 17.9938 10.8704 17.9532 10.8819C13.7457 11.7121 10.5717 15.4713 10.5717 19.9849C10.5717 25.1097 14.6657 29.2642 19.7138 29.2642C24.7522 29.2642 28.8365 25.1278 28.8544 20.0162V19.9849C28.8511 19.9717 28.8511 19.9553 28.8511 19.9388V19.9026C28.8673 19.5896 29.0767 19.326 29.3606 19.2354C29.3655 19.2321 29.3687 19.2321 29.3687 19.2321L29.5034 19.2041H29.5067L38.3713 17.3426L38.5628 17.3031C38.579 17.3015 38.592 17.3015 38.6099 17.3015C38.9506 17.3015 39.2346 17.5387 39.3157 17.8599V17.8615C39.3222 17.9324 39.3319 18.0049 39.3368 18.0806C39.3969 18.7066 39.4261 19.3458 39.4261 19.9866Z" fill="url(#paint0_linear)"/>
<path d="M25.4804 3.3275L22.6229 10.4801C22.4558 10.8969 21.9884 11.0979 21.5779 10.9298C21.2534 10.7964 21.0619 10.4702 21.0781 10.1342L21.4578 2.42478C21.5162 1.25519 22.4963 0.354109 23.6484 0.413412C24.8005 0.472715 25.6881 1.46769 25.6297 2.63728C25.6183 2.87779 25.5648 3.115 25.4804 3.3275Z" fill="#F06135"/>
<path d="M37.1896 0C37.1896 0 32.8798 0 32.5293 0C32.1788 0 31.2442 0.113664 30.8304 0.909316C30.4166 1.70497 25.0667 11.8409 25.0667 11.8409C24.88 12.1967 24.9287 12.6283 25.2192 12.9347C25.5778 13.3136 26.1684 13.3103 26.5384 12.9429L26.5482 12.9264L37.717 2.00642C37.8874 1.83675 38.1811 1.62754 38.1811 1.03122C38.1843 0.513961 37.6943 0 37.1896 0Z" fill="#4FB769"/>
<path d="M36.1775 14.1766L28.9469 16.5603C28.525 16.6986 28.0722 16.4647 27.9359 16.0364C27.8272 15.6987 27.9505 15.3396 28.215 15.1354L34.2725 10.4702C35.1909 9.76183 36.502 9.94468 37.1998 10.8771C37.8975 11.8094 37.7174 13.1405 36.799 13.8488C36.6059 13.9954 36.3917 14.1058 36.1775 14.1766Z" fill="#F06135"/>
<path fill-rule="evenodd" clip-rule="evenodd" d="M19.7135 26.3223C23.1584 26.3223 25.951 23.4856 25.951 19.9867C25.951 16.4895 23.16 13.6528 19.7135 13.6528C16.2685 13.6528 13.4727 16.4895 13.4727 19.9867C13.4727 23.4856 16.2685 26.3223 19.7135 26.3223ZM22.46 19.2832V22.1001H21.1148V21.6982V19.2832C21.1148 18.9768 21.0223 18.6935 20.8633 18.4596C20.6053 18.0807 20.1737 17.8319 19.6869 17.8319C18.8983 17.8319 18.2573 18.481 18.2573 19.2832C18.2573 20.0854 18.8966 20.7345 19.6869 20.7345C20.1753 20.7345 20.6069 20.4857 20.8633 20.1069V21.8349C20.4982 22.0095 20.0958 22.1001 19.6869 22.1001C18.1567 22.1001 16.9121 20.8366 16.9121 19.2832C16.9121 17.7298 18.1567 16.4663 19.6869 16.4663C20.1071 16.4663 20.5063 16.5619 20.8633 16.7332C20.9493 16.7744 21.0337 16.8205 21.1148 16.8699C21.9213 17.3624 22.46 18.2602 22.46 19.2832ZM22.516 23.0869H17.3818V23.5103H22.516V23.0869Z" fill="white"/>
<defs>
<linearGradient id="paint0_linear" x1="0" y1="20.0709" x2="39.4262" y2="20.0709" gradientUnits="userSpaceOnUse">
<stop stop-color="#97C940"/>
<stop offset="1" stop-color="#4FB769"/>
</linearGradient>
</defs>
</svg>
