<svg width="127" height="40" viewBox="0 0 127 40" fill="none" xmlns="http://www.w3.org/2000/svg">
<path d="M54.6165 35.4599L53.8198 33.0829H50.7026L49.9059 35.4599H48.8252L51.4831 27.6929H53.049L55.7118 35.4599H54.6165ZM51.0077 32.1637H53.5098L52.2588 28.4325L51.0077 32.1637Z" fill="#50BA69"/>
<path d="M57.4287 35.4121V27.8345C57.7597 27.7653 58.1102 27.711 58.4802 27.6714C58.8502 27.6335 59.2088 27.6138 59.5528 27.6138C60.8623 27.6138 61.8456 27.9399 62.5044 28.5906C63.1632 29.2413 63.4926 30.2363 63.4926 31.5772C63.4926 32.9379 63.1486 33.9378 62.4606 34.5737C61.7726 35.2112 60.7292 35.5291 59.3305 35.5291C58.6976 35.5274 58.0632 35.4896 57.4287 35.4121ZM61.1381 34.2887C61.547 34.0828 61.8537 33.7566 62.0582 33.3118C62.2626 32.867 62.3665 32.2872 62.3665 31.569C62.3665 30.513 62.141 29.7421 61.6898 29.2594C61.2387 28.7768 60.5475 28.5346 59.6161 28.5346C59.285 28.5346 58.9216 28.5659 58.5256 28.6285V34.5374C58.8291 34.5753 59.1812 34.5951 59.5804 34.5951C60.21 34.5984 60.7292 34.4962 61.1381 34.2887Z" fill="#50BA69"/>
<path d="M68.916 27.8176C69.6219 27.6776 70.3131 27.6084 70.9898 27.6084C72.051 27.6084 72.8461 27.8275 73.3751 28.264C73.9041 28.7022 74.1686 29.3809 74.1686 30.3001C74.1686 32.1023 73.0911 33.0033 70.9379 33.0033C70.6214 33.0033 70.3131 32.9918 70.0129 32.9671V35.4595H68.9176V27.8176H68.916ZM72.5849 31.6937C72.924 31.4022 73.0944 30.9426 73.0944 30.3166C73.0944 29.6791 72.9305 29.2145 72.6011 28.9213C72.2717 28.6281 71.7638 28.4798 71.079 28.4798C70.7026 28.4798 70.3488 28.5095 70.0146 28.5688V32.0693C70.318 32.1105 70.6328 32.1319 70.9606 32.1319C71.7021 32.1319 72.2441 31.9853 72.5849 31.6937Z" fill="#50BA69"/>
<path d="M76.1953 35.4599V27.6929H77.2906V34.5094H80.9774V35.4599H76.1953Z" fill="#50BA69"/>
<path d="M87.723 35.4599L86.9263 33.0829H83.8091L83.0124 35.4599H81.9316L84.5896 27.6929H86.1555L88.8183 35.4599H87.723ZM84.1158 32.1637H86.618L85.3669 28.4325L84.1158 32.1637Z" fill="#50BA69"/>
<path d="M91.4611 35.4599V28.6434H88.9541V27.6929H95.0651V28.6434H92.5581V35.4599H91.4611Z" fill="#50BA69"/>
<path d="M101.614 28.6269H97.8199V31.1143H101.107V32.0484H97.8199V35.4599H96.7246V27.6929H101.615V28.6269H101.614Z" fill="#50BA69"/>
<path d="M104.54 35.1337C104.047 34.8503 103.667 34.4122 103.398 33.8191C103.128 33.2261 102.995 32.4782 102.995 31.5755C102.995 30.6728 103.13 29.9249 103.401 29.3318C103.672 28.7388 104.053 28.3006 104.546 28.0173C105.04 27.734 105.624 27.5923 106.299 27.5923C106.977 27.5923 107.563 27.734 108.056 28.0173C108.55 28.3006 108.929 28.7388 109.199 29.3318C109.468 29.9249 109.601 30.6728 109.601 31.5755C109.601 32.4782 109.466 33.2261 109.195 33.8191C108.924 34.4122 108.543 34.8503 108.05 35.1337C107.556 35.417 106.972 35.5587 106.297 35.5587C105.619 35.5587 105.033 35.417 104.54 35.1337ZM107.91 33.9147C108.287 33.4369 108.473 32.6677 108.473 31.6084C108.473 30.5196 108.285 29.7338 107.907 29.2495C107.529 28.7652 106.993 28.523 106.297 28.523C105.601 28.523 105.064 28.7619 104.688 29.2363C104.309 29.7124 104.121 30.4817 104.121 31.5458C104.121 32.638 104.309 33.4254 104.684 33.9081C105.059 34.3907 105.598 34.6329 106.297 34.6329C106.997 34.6329 107.535 34.3924 107.91 33.9147Z" fill="#50BA69"/>
<path d="M116.332 35.4595L114.088 32.3576C114.018 32.3609 113.914 32.3625 113.773 32.3625C113.491 32.3625 113.16 32.351 112.78 32.3263V35.4595H111.704V27.8341C112.438 27.6842 113.153 27.6084 113.849 27.6084C114.894 27.6084 115.67 27.7995 116.178 28.1833C116.686 28.5671 116.94 29.1602 116.94 29.9657C116.944 30.5505 116.794 31.0299 116.491 31.4071C116.188 31.7827 115.745 32.0479 115.162 32.2027L117.541 35.4611H116.332V35.4595ZM112.78 31.4499C113.148 31.4812 113.484 31.4977 113.788 31.4977C114.521 31.4977 115.058 31.3758 115.397 31.1303C115.736 30.8849 115.907 30.5011 115.907 29.9756C115.907 29.6181 115.839 29.3298 115.701 29.1075C115.563 28.8851 115.35 28.722 115.061 28.6198C114.774 28.5161 114.401 28.465 113.942 28.465C113.721 28.465 113.521 28.4732 113.345 28.4914C113.168 28.5095 112.978 28.5358 112.778 28.5704V31.4499H112.78Z" fill="#50BA69"/>
<path d="M125.664 27.6929H126.977V35.4599H125.948V29.2611L123.642 34.3678H122.701L120.395 29.3352V35.4599H119.371V27.6929H120.684L123.191 33.246L125.664 27.6929Z" fill="#50BA69"/>
<path d="M39.4261 19.9866C39.4261 31.0384 30.6004 39.9981 19.7155 39.9981C8.82734 39.9997 0 31.04 0 19.9866C0 9.90997 7.34097 1.56964 16.8953 0.179307C16.9813 0.164481 17.0656 0.154598 17.1516 0.143066C17.4697 0.157892 17.7342 0.378632 17.8186 0.675148L17.8429 0.974958L18.5991 9.96433L18.6185 10.2081C18.5926 10.5195 18.3719 10.7798 18.0814 10.8588C18.036 10.8605 17.9938 10.8704 17.9532 10.8819C13.7457 11.7121 10.5717 15.4713 10.5717 19.9849C10.5717 25.1097 14.6657 29.2642 19.7138 29.2642C24.7522 29.2642 28.8365 25.1278 28.8544 20.0162V19.9849C28.8511 19.9717 28.8511 19.9553 28.8511 19.9388V19.9026C28.8673 19.5896 29.0767 19.326 29.3606 19.2354C29.3655 19.2321 29.3687 19.2321 29.3687 19.2321L29.5034 19.2041H29.5067L38.3713 17.3426L38.5628 17.3031C38.579 17.3015 38.592 17.3015 38.6099 17.3015C38.9506 17.3015 39.2346 17.5387 39.3157 17.8599V17.8615C39.3222 17.9324 39.3319 18.0049 39.3368 18.0806C39.3969 18.7066 39.4261 19.3458 39.4261 19.9866Z" fill="url(#paint0_linear)"/>
<path d="M25.4804 3.3275L22.6229 10.4801C22.4558 10.8969 21.9884 11.0979 21.5779 10.9298C21.2534 10.7964 21.0619 10.4702 21.0781 10.1342L21.4578 2.42478C21.5162 1.25519 22.4963 0.354109 23.6484 0.413412C24.8005 0.472715 25.6881 1.46769 25.6297 2.63728C25.6183 2.87779 25.5648 3.115 25.4804 3.3275Z" fill="#F06135"/>
<path d="M37.1896 0C37.1896 0 32.8798 0 32.5293 0C32.1788 0 31.2442 0.113664 30.8304 0.909316C30.4166 1.70497 25.0667 11.8409 25.0667 11.8409C24.88 12.1967 24.9287 12.6283 25.2192 12.9347C25.5778 13.3136 26.1684 13.3103 26.5384 12.9429L26.5482 12.9264L37.717 2.00642C37.8874 1.83675 38.1811 1.62754 38.1811 1.03122C38.1843 0.513961 37.6943 0 37.1896 0Z" fill="#4FB769"/>
<path d="M36.1775 14.1766L28.9469 16.5603C28.525 16.6986 28.0722 16.4647 27.9359 16.0364C27.8272 15.6987 27.9505 15.3396 28.215 15.1354L34.2725 10.4702C35.1909 9.76183 36.502 9.94468 37.1998 10.8771C37.8975 11.8094 37.7174 13.1405 36.799 13.8488C36.6059 13.9954 36.3917 14.1058 36.1775 14.1766Z" fill="#F06135"/>
<path fill-rule="evenodd" clip-rule="evenodd" d="M19.7135 26.3223C23.1584 26.3223 25.951 23.4856 25.951 19.9867C25.951 16.4895 23.16 13.6528 19.7135 13.6528C16.2685 13.6528 13.4727 16.4895 13.4727 19.9867C13.4727 23.4856 16.2685 26.3223 19.7135 26.3223ZM22.46 19.2832V22.1001H21.1148V21.6982V19.2832C21.1148 18.9768 21.0223 18.6935 20.8633 18.4596C20.6053 18.0807 20.1737 17.8319 19.6869 17.8319C18.8983 17.8319 18.2573 18.481 18.2573 19.2832C18.2573 20.0854 18.8966 20.7345 19.6869 20.7345C20.1753 20.7345 20.6069 20.4857 20.8633 20.1069V21.8349C20.4982 22.0095 20.0958 22.1001 19.6869 22.1001C18.1567 22.1001 16.9121 20.8366 16.9121 19.2832C16.9121 17.7298 18.1567 16.4663 19.6869 16.4663C20.1071 16.4663 20.5063 16.5619 20.8633 16.7332C20.9493 16.7744 21.0337 16.8205 21.1148 16.8699C21.9213 17.3624 22.46 18.2602 22.46 19.2832ZM22.516 23.0869H17.3818V23.5103H22.516V23.0869Z" fill="#6F7072"/>
<path d="M57.0921 18.3241H60.0307C59.6786 19.4904 58.9922 20.4376 57.9748 21.1674C56.9558 21.8955 55.8394 22.2596 54.624 22.2596C53.8938 22.2596 53.1717 22.1129 52.461 21.8247C51.7486 21.5331 51.1158 21.1196 50.5608 20.5826C50.0059 20.0472 49.5775 19.4048 49.2773 18.6585C48.9771 17.9107 48.8262 17.1265 48.8262 16.3062C48.8262 14.705 49.3909 13.3443 50.5202 12.2258C51.6496 11.1073 53.0175 10.5488 54.624 10.5488C55.8377 10.5488 56.9623 10.9211 57.9926 11.6674C59.0247 12.4119 59.7029 13.3723 60.0307 14.5468H57.0921C56.8048 14.0625 56.4592 13.7067 56.0536 13.4777C55.6495 13.2488 55.1595 13.1351 54.5867 13.1351C53.6455 13.1351 52.8877 13.4382 52.3133 14.0461C51.7389 14.6539 51.4517 15.4216 51.4517 16.3457C51.4517 17.3094 51.7567 18.1067 52.362 18.7343C52.9689 19.3619 53.7494 19.6749 54.7035 19.6749C55.1854 19.6749 55.6414 19.553 56.0649 19.3076C56.4868 19.0605 56.8308 18.7343 57.0921 18.3241Z" fill="#6F7072"/>
<path d="M66.8522 10.5488C68.4311 10.5488 69.773 11.1221 70.8781 12.2653C71.9799 13.4102 72.5332 14.7972 72.5332 16.4248C72.5332 18.0375 71.9653 19.4146 70.8278 20.5529C69.6919 21.6912 68.3272 22.2596 66.7354 22.2596C65.1679 22.2596 63.8146 21.6846 62.6804 20.5332C61.5445 19.3817 60.9766 18.0111 60.9766 16.4248C60.9766 14.7808 61.5445 13.3921 62.6804 12.2554C63.8146 11.1188 65.2052 10.5488 66.8522 10.5488ZM66.7338 13.1335C66.3151 13.1335 65.9143 13.2191 65.5281 13.3921C65.1419 13.5651 64.8012 13.8089 64.4994 14.1251C63.899 14.7313 63.5972 15.499 63.5972 16.4248C63.5972 17.3226 63.899 18.0886 64.4994 18.7228C65.0998 19.357 65.8429 19.6749 66.7338 19.6749C67.6473 19.6749 68.4035 19.3652 69.0055 18.7442C69.6059 18.1232 69.9061 17.3489 69.9061 16.4248C69.9061 15.5122 69.6027 14.7363 68.9958 14.0938C68.3889 13.453 67.6327 13.1335 66.7338 13.1335Z" fill="#6F7072"/>
<path d="M63.1484 9.61503L65.6555 6.87061H67.7325L70.2784 9.61503H67.7308L66.6712 8.34165L65.4575 9.61503H63.1484Z" fill="#6F7072"/>
<path d="M81.7721 18.3241H84.7091C84.3586 19.4904 83.6722 20.4376 82.6532 21.1674C81.6342 21.8955 80.5194 22.2596 79.3056 22.2596C78.5722 22.2596 77.8517 22.1129 77.1394 21.8247C76.427 21.5331 75.7942 21.1196 75.2392 20.5826C74.6842 20.0472 74.2559 19.4048 73.9573 18.6585C73.6587 17.9107 73.5078 17.1265 73.5078 16.3062C73.5078 14.705 74.0725 13.3443 75.2003 12.2258C76.3296 11.1073 77.6975 10.5488 79.3056 10.5488C80.5194 10.5488 81.6423 10.9211 82.6743 11.6674C83.7047 12.4119 84.383 13.3723 84.7091 14.5468H81.7721C81.4832 14.0625 81.1392 13.7067 80.7336 13.4777C80.3295 13.2488 79.8395 13.1351 79.2651 13.1351C78.3255 13.1351 77.5677 13.4382 76.9917 14.0461C76.4173 14.6539 76.1301 15.4216 76.1301 16.3457C76.1301 17.3094 76.4351 18.1067 77.042 18.7343C77.6489 19.3619 78.4294 19.6749 79.3835 19.6749C79.8654 19.6749 80.3214 19.553 80.7433 19.3076C81.1668 19.0605 81.5108 18.7343 81.7721 18.3241Z" fill="#6F7072"/>
<path d="M99.3821 18.3241H102.321C101.97 19.4904 101.284 20.4376 100.263 21.1674C99.2458 21.8955 98.1294 22.2596 96.9156 22.2596C96.1822 22.2596 95.4617 22.1129 94.7494 21.8247C94.037 21.5331 93.4058 21.1196 92.8508 20.5826C92.2943 20.0472 91.8659 19.4048 91.5657 18.6585C91.2655 17.9107 91.1162 17.1265 91.1162 16.3062C91.1162 14.705 91.6825 13.3443 92.8103 12.2258C93.9397 11.1073 95.3076 10.5488 96.9156 10.5488C98.1294 10.5488 99.2507 10.9211 100.284 11.6674C101.313 12.4119 101.995 13.3723 102.319 14.5468H99.3805C99.0933 14.0625 98.7493 13.7067 98.3452 13.4777C97.9379 13.2488 97.4495 13.1351 96.8751 13.1351C95.9339 13.1351 95.1761 13.4382 94.6017 14.0461C94.0257 14.6539 93.7384 15.4216 93.7384 16.3457C93.7384 17.3094 94.0419 18.1067 94.652 18.7343C95.2573 19.3619 96.0378 19.6749 96.9935 19.6749C97.4738 19.6749 97.9314 19.553 98.3533 19.3076C98.7768 19.0605 99.1208 18.7343 99.3821 18.3241Z" fill="#6F7072"/>
<path d="M109.185 10.5488C110.764 10.5488 112.106 11.1221 113.211 12.2653C114.313 13.4102 114.864 14.7972 114.864 16.4248C114.864 18.0375 114.296 19.4146 113.16 20.5529C112.026 21.6912 110.658 22.2596 109.066 22.2596C107.499 22.2596 106.147 21.6846 105.011 20.5332C103.874 19.3817 103.308 18.0111 103.308 16.4248C103.308 14.7808 103.874 13.3921 105.011 12.2554C106.147 11.1188 107.54 10.5488 109.185 10.5488ZM109.066 13.1335C108.648 13.1335 108.245 13.2191 107.861 13.3921C107.476 13.5651 107.132 13.8089 106.832 14.1251C106.232 14.7313 105.93 15.499 105.93 16.4248C105.93 17.3226 106.23 18.0886 106.832 18.7228C107.432 19.357 108.179 19.6749 109.065 19.6749C109.978 19.6749 110.735 19.3652 111.333 18.7442C111.937 18.1232 112.237 17.3489 112.237 16.4248C112.237 15.5122 111.934 14.7363 111.327 14.0938C110.72 13.453 109.967 13.1335 109.066 13.1335Z" fill="#6F7072"/>
<path d="M105.479 9.61503L107.987 6.87061H110.06L112.606 9.61503H110.06L109.004 8.34165L107.79 9.61503H105.479Z" fill="#6F7072"/>
<path d="M124.062 18.3241H127C126.647 19.4904 125.962 20.4376 124.941 21.1674C123.924 21.8955 122.807 22.2596 121.592 22.2596C120.86 22.2596 120.14 22.1129 119.427 21.8247C118.715 21.5331 118.084 21.1196 117.529 20.5826C116.972 20.0472 116.547 19.4048 116.245 18.6585C115.945 17.9107 115.796 17.1265 115.796 16.3062C115.796 14.705 116.359 13.3443 117.49 12.2258C118.619 11.1073 119.989 10.5488 121.592 10.5488C122.807 10.5488 123.93 10.9211 124.962 11.6674C125.993 12.4119 126.669 13.3723 126.999 14.5468H124.06C123.773 14.0625 123.426 13.7067 123.022 13.4777C122.618 13.2488 122.128 13.1351 121.552 13.1351C120.614 13.1351 119.856 13.4382 119.28 14.0461C118.704 14.6539 118.418 15.4216 118.418 16.3457C118.418 17.3094 118.722 18.1067 119.328 18.7343C119.937 19.3619 120.716 19.6749 121.67 19.6749C122.155 19.6749 122.608 19.553 123.033 19.3076C123.455 19.0605 123.799 18.7343 124.062 18.3241Z" fill="#6F7072"/>
<path d="M69.4326 3.99292L70.3413 1.56314C70.5182 1.09036 70.6723 0.759251 70.807 0.568163C70.9417 0.375428 71.1169 0.251879 71.3344 0.194223C71.7319 0.0887954 71.9818 0.235406 72.0857 0.632408C72.1684 0.955281 71.9656 1.43135 71.4755 2.06063L69.7133 4.35368C69.5933 4.50853 69.5056 4.59254 69.4505 4.60737C69.3628 4.63043 69.3109 4.60078 69.2882 4.51841C69.272 4.46076 69.3207 4.28614 69.4326 3.99292Z" fill="#4FB769"/>
<path d="M70.5616 5.12806L72.2086 3.13481C72.5299 2.74769 72.783 2.48577 72.9712 2.35069C73.1595 2.21561 73.3655 2.15631 73.5911 2.17608C74.0016 2.20738 74.1915 2.42811 74.1574 2.83994C74.1314 3.1727 73.7874 3.55488 73.1205 3.98647L70.7141 5.56295C70.5518 5.66838 70.4399 5.7178 70.3815 5.7145C70.2922 5.70626 70.25 5.66014 70.2565 5.57613C70.2614 5.51682 70.362 5.36692 70.5616 5.12806Z" fill="#4FB769"/>
<path d="M71.5877 6.30254L73.848 5.08517C74.2894 4.84796 74.622 4.703 74.846 4.64864C75.0715 4.59427 75.2825 4.61898 75.4853 4.72276C75.8536 4.91056 75.9494 5.18566 75.766 5.55466C75.6184 5.85282 75.1575 6.07521 74.3803 6.22017L71.565 6.76214C71.3751 6.79838 71.255 6.80167 71.2031 6.77531C71.122 6.73413 71.1025 6.67483 71.1382 6.59905C71.1625 6.54798 71.3118 6.44915 71.5877 6.30254Z" fill="#4FB769"/>
<path d="M111.719 4.0209L112.633 1.57299C112.811 1.09857 112.969 0.764163 113.105 0.571427C113.24 0.380339 113.417 0.255144 113.637 0.194193C114.038 0.0887653 114.29 0.235376 114.393 0.635672C114.476 0.960193 114.272 1.44121 113.78 2.07542L112.006 4.38495C111.885 4.5398 111.795 4.62381 111.74 4.63864C111.653 4.6617 111.598 4.63205 111.575 4.54968C111.56 4.49203 111.609 4.31576 111.719 4.0209Z" fill="#F06135"/>
<path d="M112.859 5.16243L114.516 3.15765C114.84 2.76724 115.095 2.50532 115.285 2.36859C115.475 2.23186 115.682 2.17256 115.909 2.19068C116.32 2.22363 116.511 2.44601 116.481 2.86114C116.455 3.19554 116.109 3.58101 115.436 4.01425L113.013 5.60226C112.849 5.70769 112.739 5.75876 112.679 5.75381C112.589 5.74722 112.547 5.7011 112.552 5.61544C112.555 5.55449 112.659 5.40458 112.859 5.16243Z" fill="#F06135"/>
<path d="M113.89 6.3452L116.169 5.1196C116.61 4.88239 116.948 4.73578 117.172 4.68142C117.399 4.62706 117.613 4.65177 117.814 4.7539C118.186 4.94334 118.278 5.22174 118.098 5.59238C117.95 5.89219 117.483 6.11623 116.701 6.26284L113.866 6.80975C113.675 6.84599 113.553 6.84928 113.501 6.82292C113.418 6.78174 113.399 6.72244 113.436 6.64666C113.462 6.5923 113.613 6.49181 113.89 6.3452Z" fill="#F06135"/>
<defs>
<linearGradient id="paint0_linear" x1="0" y1="20.0709" x2="39.4262" y2="20.0709" gradientUnits="userSpaceOnUse">
<stop stop-color="#97C940"/>
<stop offset="1" stop-color="#4FB769"/>
</linearGradient>
</defs>
</svg>
