<svg width="24" height="24" viewBox="0 0 24 24" fill="none" xmlns="http://www.w3.org/2000/svg">
<path fill-rule="evenodd" clip-rule="evenodd" d="M12 0C5.3726 0 0 5.3726 0 12C0 18.6274 5.3726 24 12 24C18.6274 24 24 18.6274 24 12C24 5.3726 18.6274 0 12 0ZM17.0008 7.87465C17.5515 8.0258 17.9853 8.4711 18.1325 9.0366C18.4 10.0615 18.4 12.2 18.4 12.2C18.4 12.2 18.4 14.3384 18.1325 15.3634C17.9853 15.9289 17.5515 16.3742 17.0008 16.5254C16.0027 16.8 12 16.8 12 16.8C12 16.8 7.9973 16.8 6.99915 16.5254C6.44835 16.3742 6.0146 15.9289 5.8674 15.3634C5.6 14.3384 5.6 12.2 5.6 12.2C5.6 12.2 5.6 10.0615 5.8674 9.0366C6.0146 8.4711 6.44835 8.0258 6.99915 7.87465C7.9973 7.6 12 7.6 12 7.6C12 7.6 16.0027 7.6 17.0008 7.87465Z" fill="white"/>
<path d="M10.7998 14.4V10.4L13.9998 12.4001L10.7998 14.4Z" fill="white"/>
</svg>
